#!OML:ASF H:\Terrain\Patient Classification 1\Takeo\Monday\TakeoMonday.ASF
:FULLY-SPECIFIED
:DEGREES
839
root 7.49156 12.8588 -1.3992 20.71 39.0237 4.21186
lowerback 34.131 0.973792 10.9591
upperback 20.661 5.21362 3.87577
thorax 6.12446 3.85013 -2.78359
lowerneck -19.7912 -8.87425 -6.05408
upperneck -20.2348 -10.5155 -0.509698
head -3.27451 -4.59304 0.472817
rclavicle -7.63333e-014 -3.4191e-014
rhumerus 68.0267 -10.3301 -30.2631
rradius 38.3582
rwrist -6.19846
rhand -40.7598 42.956
rfingers 7.12502
rthumb -13.7002 13.427
lclavicle -7.63333e-014 -3.4191e-014
lhumerus -13.1841 -13.4913 95.1646
lradius 64.1793
lwrist 31.9333
lhand -28.9408 7.48101
lfingers 7.12502
lthumb -2.29451 37.4484
rfemur -84.6791 -22.9232 27.2003
rtibia 100.11
rfoot -33.561 -16.4654
rtoes 0.282369
lfemur -76.833 -10.2813 -19.2193
ltibia 98.9039
lfoot -32.4018 13.5977
ltoes -15.7946
840
root 7.49604 12.9581 -1.40631 20.4625 38.9394 4.45687
lowerback 34.084 0.955031 10.5774
upperback 20.678 5.08766 3.73936
thorax 6.11081 3.76565 -2.70751
lowerneck -20.4108 -8.80769 -6.24882
upperneck -19.9114 -10.2949 -0.505721
head -3.0596 -4.47433 0.477751
rclavicle 3.49861e-014 1.82882e-014
rhumerus 68.4221 -10.3463 -30.3634
rradius 38.6726
rwrist -6.18395
rhand -40.3823 43.1729
rfingers 7.12502
rthumb -13.3363 13.6197
lclavicle 3.49861e-014 1.82882e-014
lhumerus -12.9172 -13.5101 94.9299
lradius 63.8035
lwrist 32.3799
lhand -29.3247 7.20448
lfingers 7.12502
lthumb -2.6653 37.1676
rfemur -83.573 -23.0048 26.6258
rtibia 99.1574
rfoot -33.2811 -16.1926
rtoes 1.30366
lfemur -75.7051 -10.226 -19.6271
ltibia 97.8814
lfoot -31.885 13.6068
ltoes -15.7458
841
root 7.4988 13.0434 -1.40396 20.3712 38.8141 4.77703
lowerback 33.9124 1.0466 10.0351
upperback 20.6668 5.03637 3.66061
thorax 6.09433 3.69444 -2.50511
lowerneck -21.1043 -8.74355 -6.01459
upperneck -19.5185 -10.1877 -0.759597
head -2.84493 -4.44609 0.325188
rclavicle -6.67916e-014 3.81667e-014
rhumerus 68.7323 -10.3602 -30.3722
rradius 39.0324
rwrist -6.38152
rhand -40.2048 43.4831
rfingers 7.12502
rthumb -13.1652 13.9188
lclavicle -6.67916e-014 3.81667e-014
lhumerus -12.7552 -13.3762 94.8139
lradius 63.4285
lwrist 32.504
lhand -29.5074 7.40592
lfingers 7.12502
lthumb -2.8417 37.3667
rfemur -82.7532 -23.1224 26.1621
rtibia 98.3084
rfoot -32.946 -15.9693
rtoes 2.45842
lfemur -74.67 -10.137 -20.0232
ltibia 96.812
lfoot -31.1271 13.8823
ltoes -16.8369
842
root 7.50217 13.1466 -1.40102 19.9376 38.8088 4.69908
lowerback 33.7872 1.07869 9.91789
upperback 20.6718 5.03199 3.66641
thorax 6.1295 3.68362 -2.43497
lowerneck -21.3776 -8.81776 -6.11585
upperneck -19.4102 -10.2174 -0.642742
head -2.75493 -4.4586 0.363171
rclavicle -1.59028e-014 1.03368e-013
rhumerus 68.8716 -10.4418 -30.2031
rradius 39.4296
rwrist -6.63696
rhand -40.4015 43.1959
rfingers 7.12502
rthumb -13.3548 13.6439
lclavicle -1.59028e-014 1.03368e-013
lhumerus -12.6805 -13.2813 94.7802
lradius 63.1439
lwrist 32.3535
lhand -29.374 7.6379
lfingers 7.12502
lthumb -2.71287 37.6004
rfemur -81.6125 -23.1935 26.0563
rtibia 97.2846
rfoot -32.6473 -16.0572
rtoes 2.43809
lfemur -73.4386 -9.95757 -20.0865
ltibia 95.6229
lfoot -31.1182 13.7231
ltoes -17.3266
843
root 7.50705 13.2649 -1.40268 19.3186 38.7884 4.51389
lowerback 33.7783 1.03725 9.88024
upperback 20.6864 4.97349 3.59352
thorax 6.14506 3.66049 -2.47816
lowerneck -21.4341 -8.82402 -6.41057
upperneck -19.5037 -10.1174 -0.322425
head -2.74953 -4.38411 0.516869
rclavicle -2.8625e-014 7.55382e-014
rhumerus 69.2355 -10.5052 -30.3555
rradius 39.6912
rwrist -6.61235
rhand -40.4173 42.9387
rfingers 7.12502
rthumb -13.37 13.3876
lclavicle -2.8625e-014 7.55382e-014
lhumerus -12.7068 -12.9627 94.6921
lradius 63.0004
lwrist 32.22
lhand -29.2351 7.5357
lfingers 7.12502
lthumb -2.57876 37.4999
rfemur -80.1665 -23.1748 25.9042
rtibia 96.1863
rfoot -32.3942 -16.1749
rtoes 2.021
lfemur -72.0242 -9.71426 -20.1246
ltibia 94.4659
lfoot -31.4556 13.1127
ltoes -16.1047
844
root 7.58452 13.4222 -1.37136 17.9964 37.1551 4.07854
lowerback 34.0608 1.50759 9.37361
upperback 20.9678 5.40318 3.23519
thorax 6.38359 3.86826 -2.6909
lowerneck -21.6153 -8.85994 -6.6808
upperneck -19.5644 -10.0504 -0.0240471
head -2.71763 -4.32886 0.65286
rclavicle -4.77083e-014 -4.29375e-014
rhumerus 69.5947 -10.4614 -30.3082
rradius 39.9655
rwrist -6.97962
rhand -40.2916 42.7746
rfingers 7.12502
rthumb -13.2488 13.2156
lclavicle -4.77083e-014 -4.29375e-014
lhumerus -12.8898 -12.3587 94.7042
lradius 62.9895
lwrist 32.1789
lhand -29.3874 7.35537
lfingers 7.12502
lthumb -2.72588 37.3177
rfemur -77.5951 -22.0851 25.0533
rtibia 94.7091
rfoot -32.0213 -15.8592
rtoes 1.46056
lfemur -69.3515 -8.29422 -20.7489
ltibia 93.2918
lfoot -31.9033 13.247
ltoes -14.5027
845
root 7.51621 13.4533 -1.4118 18.7688 38.9264 4.23742
lowerback 33.0421 0.983986 9.72156
upperback 20.5875 4.77912 3.51678
thorax 6.26594 3.55367 -2.41831
lowerneck -22.0725 -9.06181 -7.37064
upperneck -19.3307 -10.0539 0.508592
head -2.50757 -4.29295 0.907607
rclavicle 3.49861e-014 1.31993e-013
rhumerus 69.7879 -10.4772 -30.1364
rradius 40.3493
rwrist -7.31508
rhand -40.4262 42.6611
rfingers 7.12502
rthumb -13.3786 13.1106
lclavicle 3.49861e-014 1.31993e-013
lhumerus -12.8217 -11.9084 94.768
lradius 62.7103
lwrist 32.2028
lhand -29.5679 7.18929
lfingers 7.12502
lthumb -2.90021 37.1493
rfemur -78.4053 -23.1862 25.7684
rtibia 93.9996
rfoot -31.4434 -16.3993
rtoes 2.05196
lfemur -70.5698 -9.38824 -20.1653
ltibia 92.5823
lfoot -30.4736 12.8835
ltoes -14.628
846
root 7.59308 13.6276 -1.38568 16.3194 37.9025 3.23511
lowerback 34.3442 0.951042 10.1452
upperback 20.9157 4.99455 3.29801
thorax 6.26646 3.74043 -2.92857
lowerneck -22.9415 -9.17336 -7.90515
upperneck -18.6891 -9.92196 0.856762
head -2.11699 -4.21021 1.05995
rclavicle 1.01778e-013 -3.89618e-014
rhumerus 70.2083 -10.5981 -30.4875
rradius 40.5113
rwrist -6.49093
rhand -40.3845 42.3281
rfingers 7.12502
rthumb -13.3385 12.775
lclavicle 1.01778e-013 -3.89618e-014
lhumerus -12.3968 -11.4788 94.7329
lradius 62.054
lwrist 32.0451
lhand -29.3935 6.97709
lfingers 7.12502
lthumb -2.73173 36.9393
rfemur -74.6605 -22.5081 25.165
rtibia 92.4834
rfoot -31.2602 -16.2379
rtoes 1.56358
lfemur -67.1776 -8.40916 -20.2053
ltibia 91.4884
lfoot -31.1059 12.713
ltoes -13.8259
847
root 7.54296 13.6472 -1.41043 17.6638 39.0028 3.29841
lowerback 32.3344 0.868787 10.0407
upperback 20.6104 4.62602 3.50296
thorax 6.57497 3.52022 -2.53431
lowerneck -23.6969 -9.09612 -7.85489
upperneck -18.3218 -9.72451 0.759575
head -1.89686 -4.11905 0.995107
rclavicle -9.22361e-014 -2.3059e-014
rhumerus 70.793 -10.6897 -30.8179
rradius 40.4742
rwrist -5.70622
rhand -40.0789 42.2268
rfingers 7.12502
rthumb -13.0438 12.6547
lclavicle -9.22361e-014 -2.3059e-014
lhumerus -12.1039 -10.9527 94.7045
lradius 61.6052
lwrist 31.9104
lhand -29.1578 7.35462
lfingers 7.12502
lthumb -2.50412 37.3197
rfemur -76.2241 -22.9197 26.0477
rtibia 91.9314
rfoot -30.7817 -16.8272
rtoes 1.08979
lfemur -68.9609 -8.97605 -19.6148
ltibia 90.9109
lfoot -30.0454 12.1279
ltoes -14.0629
848
root 7.54357 13.729 -1.4129 17.5418 39.2925 3.53894
lowerback 32.1352 0.750754 9.7605
upperback 20.5408 4.40066 3.47917
thorax 6.51637 3.38047 -2.36842
lowerneck -24.05 -9.02563 -7.56712
upperneck -18.4814 -9.67218 0.444952
head -1.9396 -4.09739 0.842859
rclavicle -1.27222e-014 -1.51076e-014
rhumerus 71.1175 -10.6761 -30.4311
rradius 40.7067
rwrist -6.49739
rhand -40.1226 42.6605
rfingers 7.12502
rthumb -13.0859 13.091
lclavicle -1.27222e-014 -1.51076e-014
lhumerus -12.0686 -10.5499 94.7281
lradius 61.484
lwrist 31.8986
lhand -29.2662 8.1362
lfingers 7.12502
lthumb -2.6088 38.1
rfemur -75.364 -23.3039 25.7254
rtibia 90.9911
rfoot -30.4886 -16.7415
rtoes 0.860938
lfemur -68.1158 -9.22083 -19.8497
ltibia 89.9469
lfoot -29.6914 12.1872
ltoes -14.0302
849
root 7.56134 13.834 -1.40685 16.6901 39.1484 3.11704
lowerback 32.1161 0.760557 9.82574
upperback 20.5851 4.42424 3.47336
thorax 6.58423 3.40411 -2.40878
lowerneck -24.5496 -9.13465 -7.55085
upperneck -18.3963 -9.76236 0.28093
head -1.8519 -4.14048 0.761082
rclavicle -2.8625e-014 2.8625e-014
rhumerus 71.23 -10.7439 -29.8603
rradius 40.9941
rwrist -7.20643
rhand -40.293 42.585
rfingers 7.12502
rthumb -13.2502 13.0262
lclavicle -2.8625e-014 2.8625e-014
lhumerus -12.0587 -10.407 94.72
lradius 61.2603
lwrist 31.7127
lhand -29.7096 8.4294
lfingers 7.12502
lthumb -3.03698 38.3875
rfemur -73.8219 -23.1712 25.6326
rtibia 89.9745
rfoot -30.275 -16.7172
rtoes 0.685832
lfemur -66.6804 -8.90192 -19.7546
ltibia 88.9711
lfoot -29.8999 12.0236
ltoes -13.5645
850
root 7.58252 13.9449 -1.40327 15.9259 38.8271 3.01088
lowerback 32.159 0.822547 9.76672
upperback 20.7044 4.48758 3.34822
thorax 6.71423 3.45284 -2.5178
lowerneck -25.2652 -9.39879 -7.98387
upperneck -17.9931 -9.87314 0.597996
head -1.57246 -4.17656 0.888205
rclavicle 2.8625e-014 1.35174e-014
rhumerus 71.4959 -11.0398 -29.9391
rradius 40.9272
rwrist -6.3269
rhand -40.0797 42.2897
rfingers 7.12502
rthumb -13.0446 12.7176
lclavicle 2.8625e-014 1.35174e-014
lhumerus -11.8425 -10.4541 94.6246
lradius 60.9465
lwrist 31.7261
lhand -30.114 8.94626
lfingers 7.12502
lthumb -3.4275 38.8985
rfemur -72.1938 -23.0251 25.2121
rtibia 88.8616
rfoot -29.8945 -16.722
rtoes 0.621195
lfemur -65.0405 -8.56291 -19.9745
ltibia 87.8432
lfoot -30.0066 11.8468
ltoes -13.8188
851
root 7.58516 14.0479 -1.40282 15.4922 38.8234 3.18034
lowerback 32.0884 0.812163 9.46886
upperback 20.787 4.40053 3.257
thorax 6.80029 3.39813 -2.43746
lowerneck -25.867 -9.5417 -8.25638
upperneck -17.79 -9.88278 0.824578
head -1.39412 -4.16265 0.978127
rclavicle 0 -1.90833e-014
rhumerus 71.9576 -11.2572 -30.303
rradius 41.0365
rwrist -5.64817
rhand -39.6578 42.3446
rfingers 7.12502
rthumb -12.6378 12.7469
lclavicle 0 -1.90833e-014
lhumerus -11.502 -10.2326 94.5046
lradius 60.6197
lwrist 31.8041
lhand -30.0165 9.45747
lfingers 7.12502
lthumb -3.33344 39.4112
rfemur -70.8556 -23.0324 24.696
rtibia 87.7896
rfoot -29.6611 -16.6789
rtoes 1.23618
lfemur -63.7324 -8.50184 -20.2375
ltibia 86.7036
lfoot -29.7668 11.4932
ltoes -13.5635
852
root 7.5867 14.1502 -1.39604 15.0356 38.8357 3.06748
lowerback 31.8897 0.822843 9.09942
upperback 20.7661 4.30344 3.24469
thorax 6.8028 3.31181 -2.23836
lowerneck -26.304 -9.50561 -8.41475
upperneck -17.7028 -9.71658 0.887848
head -1.29942 -4.06321 1.02014
rclavicle -6.99722e-014 9.70069e-014
rhumerus 72.3853 -11.1365 -30.2377
rradius 41.3944
rwrist -6.34739
rhand -39.6844 42.4861
rfingers 7.12502
rthumb -12.6636 12.89
lclavicle -6.99722e-014 9.70069e-014
lhumerus -11.3822 -9.45426 94.434
lradius 60.1213
lwrist 31.2307
lhand -29.4553 9.01461
lfingers 7.12502
lthumb -2.7914 38.9761
rfemur -69.584 -22.8215 24.38
rtibia 86.6699
rfoot -29.5579 -16.5404
rtoes 2.51281
lfemur -62.6173 -8.41 -20.183
ltibia 85.5925
lfoot -29.4586 11.1568
ltoes -12.8001
